<svg xmlns="http://www.w3.org/2000/svg" xmlns:xlink="http://www.w3.org/1999/xlink" width="2135.644" height="797.226" viewBox="0 0 2135.644 797.226">
  <defs>
    <style>
      .cls-1 {
        opacity: 0.1;
        fill: url(#linear-gradient);
      }

      .cls-2 {
        fill: #eef1fc;
      }

      .cls-3, .cls-4 {
        stroke: none;
      }

      .cls-4 {
        fill: #4c83ff;
      }
    </style>
    <linearGradient id="linear-gradient" y1="0.5" x2="1" y2="0.5" gradientUnits="objectBoundingBox">
      <stop offset="0" stop-color="#4c84ff"/>
      <stop offset="1" stop-color="#783dff"/>
    </linearGradient>
  </defs>
  <g id="Group_1064" data-name="Group 1064" transform="translate(215.149 -7836.774)">
    <g id="Shape_574" data-name="Shape 574" class="cls-1" transform="translate(-243.149 3214.769)">
      <path class="cls-3" d="M 2162.6435546875 5418.2314453125 L 29.01739883422852 5418.2314453125 L 32.3221549987793 5228.56298828125 C 35.85351181030273 5226.64306640625 57.43743896484375 5214.96044921875 89.92019653320312 5198.408203125 C 110.7244110107422 5187.80712890625 131.8620452880859 5177.3125 152.7459869384766 5167.21630859375 C 178.8496704101562 5154.59716796875 204.6283569335938 5142.56787109375 229.3659820556641 5131.462890625 C 292.3236083984375 5103.20068359375 348.9970397949219 5080.68359375 397.811767578125 5064.53662109375 C 426.7809753417969 5054.9541015625 453.2651977539062 5047.5390625 476.5288696289062 5042.49755859375 C 489.0236206054688 5039.78955078125 500.8336181640625 5037.71435546875 511.6307373046875 5036.3291015625 C 522.906005859375 5034.8828125 533.3875732421875 5034.14990234375 542.78466796875 5034.14990234375 C 549.4130859375 5034.14990234375 555.656005859375 5034.5146484375 561.3394165039062 5035.23486328125 C 614.3101806640625 5041.9443359375 670.7770385742188 5057.45703125 725.3843994140625 5072.45849609375 C 789.7646484375 5090.14501953125 850.5744018554688 5106.85107421875 897.9002075195312 5106.85107421875 C 908.324951171875 5106.85107421875 917.9241333007812 5106.01953125 926.4312744140625 5104.3798828125 C 930.885986328125 5103.521484375 935.1586303710938 5102.419921875 939.1299438476562 5101.1064453125 C 943.2086181640625 5099.75732421875 947.0960083007812 5098.142578125 950.6841430664062 5096.30712890625 C 959.5252075195312 5091.78564453125 971.0491333007812 5084.31640625 986.9507446289062 5072.80224609375 C 1001.3046875 5062.408203125 1018.118896484375 5049.515625 1035.920166015625 5035.8662109375 C 1083.367065429688 4999.48583984375 1142.416015625 4954.208984375 1203.857543945312 4918.16064453125 C 1219.852783203125 4908.77587890625 1235.461791992188 4900.3525390625 1250.25048828125 4893.12548828125 C 1266.3076171875 4885.27880859375 1281.948608398438 4878.57080078125 1296.739990234375 4873.18896484375 C 1312.602294921875 4867.4169921875 1327.993041992188 4862.9853515625 1342.484375 4860.01611328125 C 1350.076538085938 4858.4609375 1357.589111328125 4857.27197265625 1364.814086914062 4856.4833984375 C 1372.248413085938 4855.671875 1379.592529296875 4855.26025390625 1386.642333984375 4855.26025390625 C 1394.7236328125 4855.26025390625 1402.662353515625 4855.80078125 1410.23779296875 4856.86572265625 C 1418.032348632812 4857.96142578125 1425.67236328125 4859.64599609375 1432.946044921875 4861.87109375 C 1465.21435546875 4871.744140625 1496.73681640625 4882.88671875 1527.22119140625 4893.6630859375 C 1566.242553710938 4907.45654296875 1603.099731445312 4920.4853515625 1639.460205078125 4930.27880859375 C 1658.975463867188 4935.53564453125 1676.5986328125 4939.38623046875 1693.337036132812 4942.05078125 C 1702.379638671875 4943.49072265625 1711.28173828125 4944.59130859375 1719.79541015625 4945.32275390625 C 1728.706298828125 4946.087890625 1737.510498046875 4946.4755859375 1745.963623046875 4946.4755859375 C 1791.40966796875 4946.4755859375 1831.864624023438 4935.4443359375 1869.640502929688 4912.75 C 1885.494140625 4903.22607421875 1902.600219726562 4891.8212890625 1920.483642578125 4878.85205078125 C 1936.735717773438 4867.06591796875 1953.995483398438 4853.72265625 1971.783569335938 4839.19384765625 C 2001.736206054688 4814.7294921875 2033.722534179688 4786.4921875 2066.854736328125 4755.265625 C 2096.32958984375 4727.48583984375 2121.274169921875 4702.43359375 2137.010009765625 4686.30908203125 C 2150.018310546875 4672.97900390625 2159.047607421875 4663.38818359375 2162.6435546875 4659.54052734375 L 2162.6435546875 5418.2314453125 Z"/>
      <path class="cls-4" d="M 2161.6435546875 5417.2314453125 L 2161.6435546875 4662.06982421875 C 2157.2880859375 4666.70703125 2148.9990234375 4675.455078125 2137.7255859375 4687.00732421875 C 2121.9833984375 4703.13916015625 2097.028076171875 4728.20166015625 2067.54052734375 4755.9931640625 C 2034.391479492188 4787.23583984375 2002.387084960938 4815.48876953125 1972.41650390625 4839.96826171875 C 1954.61328125 4854.50927734375 1937.33837890625 4867.86376953125 1921.07080078125 4879.66162109375 C 1903.163940429688 4892.6474609375 1886.03369140625 4904.06884765625 1870.155517578125 4913.607421875 C 1832.219604492188 4936.3974609375 1791.59619140625 4947.47607421875 1745.963623046875 4947.47607421875 C 1737.482055664062 4947.47607421875 1728.64892578125 4947.08642578125 1719.7099609375 4946.31884765625 C 1711.172119140625 4945.5859375 1702.24609375 4944.48193359375 1693.179565429688 4943.03857421875 C 1676.406127929688 4940.3681640625 1658.749267578125 4936.51025390625 1639.199584960938 4931.24462890625 C 1602.802124023438 4921.44091796875 1565.927124023438 4908.40576171875 1526.887084960938 4894.60546875 C 1496.412719726562 4883.8330078125 1464.901123046875 4872.69384765625 1432.653686523438 4862.82763671875 C 1425.429931640625 4860.6171875 1417.841186523438 4858.94482421875 1410.0986328125 4857.85595703125 C 1402.568969726562 4856.79736328125 1394.677124023438 4856.2607421875 1386.642456054688 4856.2607421875 C 1379.628662109375 4856.2607421875 1372.321166992188 4856.669921875 1364.922729492188 4857.4775390625 C 1357.728637695312 4858.2626953125 1350.246826171875 4859.4462890625 1342.685180664062 4860.99560546875 C 1328.241455078125 4863.955078125 1312.898315429688 4868.37353515625 1297.081787109375 4874.12890625 C 1282.323364257812 4879.49853515625 1266.71484375 4886.1923828125 1250.689575195312 4894.02392578125 C 1235.92333984375 4901.240234375 1220.337036132812 4909.6513671875 1204.36328125 4919.02294921875 C 1142.975219726562 4955.04052734375 1083.953369140625 5000.29638671875 1036.5283203125 5036.66015625 C 1018.721435546875 5050.3134765625 1001.902099609375 5063.21044921875 987.537109375 5073.6123046875 C 971.593017578125 5085.1572265625 960.0274047851562 5092.65185546875 951.1395874023438 5097.19775390625 C 947.5061645507812 5099.05615234375 943.5711669921875 5100.69091796875 939.4442749023438 5102.0556640625 C 935.4320678710938 5103.3828125 931.117431640625 5104.4951171875 926.6205444335938 5105.3623046875 C 918.0511474609375 5107.013671875 908.3883666992188 5107.85107421875 897.9002075195312 5107.85107421875 C 850.4395751953125 5107.85107421875 789.5664672851562 5091.1279296875 725.1195678710938 5073.4228515625 C 670.5458374023438 5058.4306640625 614.1139526367188 5042.92724609375 561.2139892578125 5036.2265625 C 555.570556640625 5035.51220703125 549.369873046875 5035.1494140625 542.7843017578125 5035.1494140625 C 533.4302368164062 5035.1494140625 522.991455078125 5035.88037109375 511.7586669921875 5037.32080078125 C 500.9905395507812 5038.7021484375 489.2095947265625 5040.77197265625 476.7430419921875 5043.47412109375 C 453.514892578125 5048.5078125 427.066162109375 5055.9130859375 398.1317749023438 5065.48388671875 C 349.3511657714844 5081.619140625 292.7120971679688 5104.123046875 229.7873992919922 5132.3701171875 C 205.0592803955078 5143.470703125 179.2895965576172 5155.49560546875 153.1945953369141 5168.1103515625 C 132.3164672851562 5178.20361328125 111.1849060058594 5188.69482421875 90.38646697998047 5199.29296875 C 59.21244430541992 5215.177734375 38.07855224609375 5226.578125 33.31209564208984 5229.16357421875 L 30.03504943847656 5417.2314453125 L 2161.6435546875 5417.2314453125 M 2163.6435546875 5419.2314453125 L 27.99990272521973 5419.2314453125 L 31.33271408081055 5227.962890625 C 31.33271408081055 5227.962890625 387.8125305175781 5033.14990234375 542.7843017578125 5033.14990234375 C 549.402099609375 5033.14990234375 555.6256713867188 5033.5029296875 561.4652099609375 5034.24267578125 C 677.1942138671875 5048.9013671875 810.7803344726562 5105.85107421875 897.9002685546875 5105.85107421875 C 918.1177978515625 5105.85107421875 935.8180541992188 5102.7880859375 950.2289428710938 5095.4169921875 C 1019.729309082031 5059.86962890625 1227.126342773438 4854.2607421875 1386.642456054688 4854.2607421875 C 1402.730224609375 4854.2607421875 1418.315185546875 4856.3486328125 1433.238647460938 4860.9150390625 C 1546.7705078125 4895.65087890625 1649.306884765625 4945.4755859375 1745.963623046875 4945.4755859375 C 1787.990112304688 4945.4755859375 1828.894653320312 4936.06201171875 1869.12548828125 4911.89306640625 C 2001.88330078125 4832.138671875 2163.6435546875 4656.99853515625 2163.6435546875 4656.99853515625 L 2163.6435546875 5419.2314453125 Z"/>
    </g>
    <circle id="Ellipse_107" data-name="Ellipse 107" class="cls-2" cx="48.753" cy="48.753" r="48.753" transform="translate(86 8242.794)"/>
    <circle id="Ellipse_109" data-name="Ellipse 109" class="cls-2" cx="30.235" cy="30.235" r="30.235" transform="translate(145.713 8163.428)"/>
    <circle id="Ellipse_108" data-name="Ellipse 108" class="cls-2" cx="48.753" cy="48.753" r="48.753" transform="translate(1845.539 7969.971) rotate(-150)"/>
  </g>
</svg>
